<?xml version="1.0" encoding="UTF-8" standalone="no"?>
<svg width="39px" height="49px" viewBox="0 0 39 49" version="1.1" xmlns="http://www.w3.org/2000/svg" xmlns:xlink="http://www.w3.org/1999/xlink" xmlns:sketch="http://www.bohemiancoding.com/sketch/ns">
    <!-- Generator: Sketch 3.4 (15575) - http://www.bohemiancoding.com/sketch -->
    <title>Logo mark</title>
    <desc>Created with Sketch.</desc>
    <defs></defs>
    <g id="Top" stroke="none" stroke-width="1" fill="none" fill-rule="evenodd" sketch:type="MSPage">
        <g id="Desktop" sketch:type="MSArtboardGroup" transform="translate(-106.000000, -27.000000)" fill="#8187FF">
            <g id="header" sketch:type="MSLayerGroup" transform="translate(57.000000, 27.000000)">
                <g id="Logo-mark" transform="translate(49.000000, 0.000000)" sketch:type="MSShapeGroup">
                    <path d="M17.3333333,18.4407621 L16.9,18.6211674 L16.9,42.1203345 L35.1962963,34.503224 L35.1962963,34.4058053 L35.6296296,34.2254001 L35.6296296,10.726233 L17.3333333,18.3433435 L17.3333333,18.4407621 L17.3333333,18.4407621 L17.3333333,18.4407621 L17.3333333,18.4407621 Z M39,37.9529759 L13,48.84962 L13,15.2329273 L39,4.33628319 L39,37.9529759 L39,37.9529759 L39,37.9529759 L39,37.9529759 Z" id="Rectangle-1"></path>
                    <path d="M26,28.7601831 L26,33.6166927 L0,44.5133368 L0,10.8966441 L26,0 L26,5.261016 L22.1962963,6.84457317 L22.1962963,6.66777375 L3.9,14.2848842 L3.9,26.1733797 L3.9,38.0618752 L22.1962963,30.4447647 L26,28.7601831 Z" id="Rectangle-1-Copy"></path>
                </g>
            </g>
        </g>
    </g>
</svg>